<?xml version="1.0" encoding="utf-8"?>
<!-- Generator: Adobe Illustrator 27.3.1, SVG Export Plug-In . SVG Version: 6.00 Build 0)  -->
<svg version="1.1" id="Layer_2" xmlns="http://www.w3.org/2000/svg" xmlns:xlink="http://www.w3.org/1999/xlink" x="0px" y="0px"
	 viewBox="0 0 1329 942" style="enable-background:new 0 0 1329 942;" xml:space="preserve">
<style type="text/css">
	.st0{fill:#5A2804;}
	.st1{fill:#FFFFFF;}
	.st2{fill:#7A2EFF;}
	.st3{fill:#FF171D;}
</style>
<g id="lense">
	<path d="M1103.7,499.5l130.9-76.7c0,33.3,0,66.6,0,99.9c0,67.3,0,134.6,0,202c-84.1-67.1-127.7-98.9-130.9-95.2
		c-0.3,0.3-0.3,0.8,0,1.5"/>
	<rect x="1000.3" y="440.1" width="103.3" height="265.3"/>
	<rect x="931.4" y="512.4" width="68.9" height="124"/>
</g>
<g id="laptop.logo">
	<path d="M971.2,881H223.3c-6.6,0-11.9-5.3-11.9-11.9v-72.6c0-6.6,5.3-11.9,11.9-11.9h747.8c6.6,0,11.9,5.3,11.9,11.9v72.6
		C983.1,875.7,977.8,881,971.2,881z"/>
	<path d="M908.4,822.4H289.6c-12.7,0-23.1-10.3-23.1-23.1V404c0-16.2,13.2-29.4,29.4-29.4h612.4c12.7,0,23.1,10.3,23.1,23.1v401.7
		C931.4,812.1,921.1,822.4,908.4,822.4z"/>
	<path class="st0" d="M846.3,767.3H352.5c-12.7,0-23.1-10.3-23.1-23.1V445.4c0-16.2,13.2-29.4,29.4-29.4h487.5
		c12.7,0,23.1,10.3,23.1,23.1v305.2C869.4,757,859.1,767.3,846.3,767.3z"/>
	<rect x="428.5" y="784.5" class="st0" width="341" height="27.6"/>
</g>
<g id="name.logo">
	<path class="st1" d="M478.5,614.5l-57-29.5v-6.9l57-29.5v10.2l-44.2,22.7l44.2,22.7V614.5z"/>
	<path class="st1" d="M528.6,529.6l-30.9,108h-9l30.8-108H528.6z"/>
	<path class="st1" d="M554.9,620.8c0,7.3-1.8,12.9-5.4,16.7c-3.6,3.8-8.6,5.7-15,5.7c-1.1,0-2.3-0.1-3.7-0.2s-2.7-0.3-4.1-0.5V633
		h0.6c0.8,0.2,1.6,0.4,2.6,0.5c0.9,0.2,1.8,0.3,2.7,0.3c2.7,0,4.8-0.4,6.6-1.1c1.7-0.7,3-1.8,3.8-3.4c0.8-1.4,1.3-3.1,1.6-5.2
		c0.3-2.1,0.4-4.7,0.4-7.7v-52.6h-10.7v-9h20.7V620.8z M554.9,544.1h-11.4v-11.2h11.4V544.1z"/>
	<path class="st1" d="M636.6,619v-37.1c0-2.9-0.1-5.7-0.3-8.2c-0.2-2.5-0.7-4.5-1.3-5.9c-0.7-1.5-1.7-2.7-3-3.4s-3.1-1.1-5.3-1.1
		c-2.1,0-4.3,0.7-6.6,2s-4.8,3.3-7.3,5.9c0,0.7,0.1,1.4,0.1,2.3c0.1,0.9,0.1,2,0.1,3.2V619h-10v-37.1c0-2.9-0.1-5.7-0.3-8.2
		c-0.2-2.5-0.7-4.5-1.3-5.9c-0.7-1.5-1.7-2.7-3-3.4s-3.1-1.1-5.3-1.1c-2.2,0-4.4,0.7-6.8,2.2c-2.4,1.5-4.7,3.3-6.9,5.6V619h-10
		v-64.2h10v7.1c2.6-2.8,5.2-5,7.8-6.6s5.4-2.3,8.5-2.3c3.5,0,6.6,0.9,9.3,2.6s4.8,4.6,6.2,8.5c3-3.6,5.9-6.4,8.8-8.3
		c2.9-1.9,6-2.8,9.3-2.8c2.5,0,4.9,0.4,6.9,1.3c2.1,0.9,3.9,2.2,5.5,4.2c1.6,2,2.8,4.4,3.7,7.3c0.9,2.9,1.3,6.6,1.3,11V619H636.6z"
		/>
	<path class="st1" d="M676.7,620.8c0,7.3-1.8,12.9-5.4,16.7c-3.6,3.8-8.6,5.7-15,5.7c-1.1,0-2.3-0.1-3.7-0.2s-2.7-0.3-4.1-0.5V633
		h0.6c0.8,0.2,1.6,0.4,2.6,0.5c0.9,0.2,1.8,0.3,2.7,0.3c2.7,0,4.8-0.4,6.6-1.1c1.7-0.7,3-1.8,3.8-3.4c0.8-1.4,1.3-3.1,1.6-5.2
		c0.3-2.1,0.4-4.7,0.4-7.7v-52.6H656v-9h20.7V620.8z M676.8,544.1h-11.4v-11.2h11.4V544.1z"/>
	<path class="st1" d="M752.3,585l-57,29.5v-10.2l44.2-22.7l-44.2-22.7v-10.2l57,29.5V585z"/>
</g>
<g id="code.logo">
	<rect x="363" y="660.5" class="st2" width="440.9" height="20.7"/>
	<rect x="366.5" y="491.7" class="st2" width="440.9" height="20.7"/>
	<rect x="369.9" y="695" class="st3" width="217" height="20.7"/>
	<rect x="366.5" y="460.7" class="st3" width="217" height="20.7"/>
</g>
<g id="rollB">
	<ellipse cx="776.4" cy="221.3" rx="196.4" ry="184.3"/>
	<ellipse class="st0" cx="698.4" cy="161.7" rx="50.6" ry="47.5"/>
	<ellipse class="st0" cx="844" cy="162.1" rx="50.6" ry="47.5"/>
	<ellipse class="st0" cx="698" cy="287.1" rx="50.6" ry="47.5"/>
	<ellipse class="st0" cx="844" cy="287.1" rx="50.6" ry="47.5"/>
</g>
<g id="rollA">
	<ellipse cx="387.1" cy="221.3" rx="196.4" ry="184.3"/>
	<ellipse class="st0" cx="317" cy="162.1" rx="50.6" ry="47.5"/>
	<ellipse class="st0" cx="458" cy="162.1" rx="50.6" ry="47.5"/>
	<ellipse class="st0" cx="317" cy="287.1" rx="50.6" ry="47.5"/>
	<ellipse class="st0" cx="458" cy="287.1" rx="50.6" ry="47.5"/>
</g>
</svg>
